<svg version="1.2" xmlns="http://www.w3.org/2000/svg" viewBox="0 0 181 54" width="134" height="40">
	<title>play-store</title>
	<defs>
		<clipPath clipPathUnits="userSpaceOnUse" id="cp1">
			<path d="m-13-13h206.67v80h-206.67z"/>
		</clipPath>
		<clipPath clipPathUnits="userSpaceOnUse" id="cp2">
			<path d="m-13-13h206.67v80h-206.67z"/>
		</clipPath>
	</defs>
	<style>
		.s0 { fill: #ffffff } 
		.s1 { fill: #000000 } 
		.s2 { fill: #a6a6a6 } 
		.s3 { fill: none;stroke: #ffffff;stroke-miterlimit:10;stroke-width: .4 } 
		.s4 { fill: #ffffff;stroke: #ffffff;stroke-miterlimit:10;stroke-width: .4 } 
		.s5 { fill: #ea4335 } 
		.s6 { fill: #fbbc04 } 
		.s7 { fill: #4285f4 } 
		.s8 { fill: #34a853 } 
	</style>
	<g id="g8">
		<g id="g10">
			<g id="Clip-Path: g12" clip-path="url(#cp1)">
				<g id="g12">
					<g id="g18">
						<g id="g20">
						</g>
						<g id="g30">
							<g id="Clip-Path: g28" clip-path="url(#cp2)">
								<g id="g28" style="opacity: 0">
									<path id="path26" class="s0" d="m193.7 67h-206.7v-80h206.7z"/>
								</g>
							</g>
						</g>
					</g>
					<g id="g32">
						<path id="path34" class="s1" d="m173.7 53.7h-166.7c-3.7 0-6.7-3-6.7-6.7v-40c0-3.7 3-6.7 6.7-6.7h166.7c3.6 0 6.6 3 6.6 6.7v40c0 3.7-3 6.7-6.6 6.7z"/>
					</g>
					<g id="g36">
						<path id="path38" class="s2" d="m173.7 0.3h-166.7c-3.7 0-6.7 3-6.7 6.7v40c0 3.7 3 6.7 6.7 6.7h166.7c3.6 0 6.6-3 6.6-6.7v-40c0-3.7-3-6.7-6.6-6.7zm0 1.1c3.1 0 5.6 2.5 5.6 5.6v40c0 3.1-2.5 5.6-5.6 5.6h-166.7c-3.1 0-5.6-2.5-5.6-5.6v-40c0-3.1 2.5-5.6 5.6-5.6z"/>
					</g>
					<g id="g40">
						<path id="path42" class="s0" d="m63.6 14q0 1.7-1 2.7-1.2 1.1-3 1.1-1.7 0-2.9-1.2-1.2-1.2-1.2-2.9 0-1.8 1.2-3 1.2-1.2 2.9-1.2 0.9 0 1.7 0.3 0.7 0.4 1.2 0.9l-0.7 0.7q-0.8-0.9-2.2-0.9-1.2 0-2.2 0.9-0.9 0.8-0.9 2.3 0 1.4 0.9 2.3 1 0.9 2.2 0.9 1.4 0 2.3-0.9 0.5-0.6 0.6-1.7h-2.9v-0.9h3.9q0.1 0.3 0.1 0.6z"/>
					</g>
					<g id="g44">
						<path id="path46" class="s3" d="m63.6 14q0 1.7-1 2.7-1.2 1.1-3 1.1-1.7 0-2.9-1.2-1.2-1.2-1.2-2.9 0-1.8 1.2-3 1.2-1.2 2.9-1.2 0.9 0 1.7 0.3 0.7 0.4 1.2 0.9l-0.7 0.7q-0.8-0.9-2.2-0.9-1.2 0-2.2 0.9-0.9 0.8-0.9 2.3 0 1.4 0.9 2.3 1 0.9 2.2 0.9 1.4 0 2.3-0.9 0.5-0.6 0.6-1.7h-2.9v-0.9h3.9q0.1 0.3 0.1 0.6z"/>
					</g>
					<g id="g48">
						<path id="path50" class="s0" d="m69.7 10.6h-3.6v2.6h3.2v0.9h-3.2v2.6h3.6v1h-4.7v-8h4.7z"/>
					</g>
					<g id="g52">
						<path id="path54" class="s3" d="m69.7 10.6h-3.6v2.6h3.2v0.9h-3.2v2.6h3.6v1h-4.7v-8h4.7z"/>
					</g>
					<g id="g56">
						<path id="path58" class="s0" d="m74 17.7h-1v-7.1h-2.2v-0.9h5.5v0.9h-2.3z"/>
					</g>
					<g id="g60">
						<path id="path62" class="s3" d="m74 17.7h-1v-7.1h-2.2v-0.9h5.5v0.9h-2.3z"/>
					</g>
					<path id="path64" class="s4" d="m80.3 9.7h1v8h-1z"/>
					<g id="g66">
						<path id="path68" class="s0" d="m85.8 17.7h-1v-7.1h-2.2v-0.9h5.5v0.9h-2.3z"/>
					</g>
					<g id="g70">
						<path id="path72" class="s3" d="m85.8 17.7h-1v-7.1h-2.2v-0.9h5.5v0.9h-2.3z"/>
					</g>
					<g id="g74">
						<path id="path76" class="s0" d="m98.5 16.6q-1.2 1.2-3 1.2-1.7 0-2.9-1.2-1.2-1.2-1.2-2.9 0-1.8 1.2-3 1.2-1.2 2.9-1.2 1.8 0 3 1.2 1.2 1.2 1.2 3 0 1.7-1.2 2.9zm-5.1-0.6q0.9 0.9 2.1 0.9 1.3 0 2.2-0.9 0.9-0.9 0.9-2.3 0-1.4-0.9-2.3-0.9-0.9-2.2-0.9-1.2 0-2.1 0.9-0.9 0.9-0.9 2.3 0 1.4 0.9 2.3z"/>
					</g>
					<g id="g78">
						<path id="path80" class="s3" d="m98.5 16.6q-1.2 1.2-3 1.2-1.7 0-2.9-1.2-1.2-1.2-1.2-2.9 0-1.8 1.2-3 1.2-1.2 2.9-1.2 1.8 0 3 1.2 1.2 1.2 1.2 3 0 1.7-1.2 2.9zm-5.1-0.6q0.9 0.9 2.1 0.9 1.3 0 2.2-0.9 0.9-0.9 0.9-2.3 0-1.4-0.9-2.3-0.9-0.9-2.2-0.9-1.2 0-2.1 0.9-0.9 0.9-0.9 2.3 0 1.4 0.9 2.3z"/>
					</g>
					<g id="g82">
						<path id="path84" class="s0" d="m101.1 17.7v-8h1.3l3.8 6.2h0.1l-0.1-1.6v-4.6h1.1v8h-1.1l-4.1-6.6v1.6 5z"/>
					</g>
					<g id="g86">
						<path id="path88" class="s3" d="m101.1 17.7v-8h1.3l3.8 6.2h0.1l-0.1-1.6v-4.6h1.1v8h-1.1l-4.1-6.6v1.6 5z"/>
					</g>
					<path id="path90" class="s0" d="m142.9 40.3h2.5v-16.6h-2.5zm22.4-10.7l-2.8 7.2h-0.1l-3-7.2h-2.7l4.5 10.1-2.5 5.6h2.5l6.9-15.7zm-13.8-0.4c-1.8 0-3.7 0.8-4.5 2.6l2.3 0.9c0.4-0.9 1.3-1.2 2.2-1.2 1.3 0 2.6 0.8 2.6 2.1v0.2c-0.4-0.3-1.4-0.6-2.6-0.6-2.3 0-4.8 1.3-4.8 3.7 0 2.2 2 3.7 4.2 3.7 1.7 0 2.6-0.8 3.2-1.6v1.2h2.4v-6.4c0-2.9-2.2-4.6-5-4.6zm-0.3 9.2c-0.8 0-2-0.4-2-1.4 0-1.3 1.4-1.8 2.7-1.8 1.1 0 1.6 0.2 2.2 0.5-0.2 1.6-1.5 2.7-2.9 2.7zm-15.2-14.8h-5.9v16.7h2.5v-6.3h3.4c2.8 0 5.5-2 5.5-5.2 0-3.2-2.7-5.2-5.5-5.2zm0.1 8h-3.5v-5.7h3.5c1.9 0 2.9 1.6 2.9 2.9 0 1.3-1 2.8-2.9 2.8zm-29.7-1.1h-0.1c-0.6-0.6-1.6-1.2-3-1.2-2.8 0-5.4 2.5-5.4 5.7 0 3.1 2.6 5.6 5.4 5.6 1.4 0 2.4-0.6 3-1.3h0.1v0.8c0 2.2-1.2 3.4-3 3.4-1.6 0-2.5-1.1-2.9-2.1l-2.2 0.9c0.7 1.6 2.3 3.4 5.1 3.4 2.9 0 5.4-1.7 5.4-5.9v-10.2h-2.4zm-2.9 7.9c-1.7 0-3.1-1.5-3.1-3.5 0-2 1.4-3.4 3.1-3.4 1.7 0 3.1 1.4 3.1 3.4 0 2-1.4 3.5-3.1 3.5zm7 1.8h2.5v-16.6h-2.5zm13.9-7.4c-0.5-1.3-1.9-3.6-4.9-3.6-2.9 0-5.3 2.3-5.3 5.6 0 3.2 2.4 5.7 5.6 5.7 2.6 0 4.1-1.6 4.7-2.5l-1.9-1.3c-0.7 1-1.5 1.6-2.8 1.6q-1.9 0-2.8-1.7l7.6-3.2zm-7.7 1.9c-0.1-2.2 1.7-3.3 3-3.3 0.9 0 1.8 0.5 2.1 1.2zm-52.7-3.7v2.4h5.7c-0.1 1.3-0.6 2.3-1.3 3-0.8 0.8-2.1 1.7-4.4 1.7-3.6 0-6.3-2.8-6.3-6.4 0-3.5 2.7-6.4 6.3-6.4 1.9 0 3.3 0.8 4.3 1.8l1.7-1.7c-1.4-1.4-3.3-2.5-6-2.5-4.9 0-9 4-9 8.8 0 4.9 4.1 8.9 9 8.9 2.6 0 4.6-0.9 6.1-2.5 1.6-1.6 2.1-3.8 2.1-5.6q0-0.9-0.1-1.5zm14.8-1.8c-3.2 0-5.7 2.4-5.7 5.7 0 3.2 2.5 5.7 5.7 5.7 3.1 0 5.6-2.5 5.6-5.7 0-3.3-2.5-5.7-5.6-5.7zm0 9.1c-1.8 0-3.2-1.4-3.2-3.4 0-2.1 1.4-3.5 3.2-3.5 1.7 0 3.2 1.4 3.2 3.5 0 2-1.5 3.4-3.2 3.4zm12.4-9.1c-3.2 0-5.7 2.4-5.7 5.7 0 3.2 2.5 5.7 5.7 5.7 3.1 0 5.7-2.5 5.7-5.7 0-3.3-2.6-5.7-5.7-5.7zm0 9.1c-1.7 0-3.2-1.4-3.2-3.4 0-2.1 1.5-3.5 3.2-3.5 1.7 0 3.2 1.4 3.2 3.5 0 2-1.5 3.4-3.2 3.4z"/>
					<g id="g92">
						<path id="path94" class="s5" d="m28 26.2l-14.2 15.1q0 0 0 0c0.4 1.6 1.9 2.8 3.7 2.8 0.7 0 1.3-0.1 1.9-0.5h0.1l15.9-9.2z"/>
					</g>
					<g id="g96">
						<path id="path98" class="s6" d="m42.3 23.7l-6.9-4-7.8 6.9 7.8 7.8 6.9-4c1.2-0.6 2-1.9 2-3.4 0-1.4-0.8-2.7-2-3.3z"/>
					</g>
					<g id="g100">
						<path id="path102" class="s7" d="m13.8 12.7q-0.2 0.5-0.2 1v26.6q0 0.5 0.2 1l14.6-14.7z"/>
					</g>
					<g id="g104">
						<path id="path106" class="s8" d="m28.1 27l7.3-7.3-16-9.3c-0.5-0.3-1.2-0.5-1.9-0.5-1.8 0-3.3 1.2-3.7 2.8q0 0 0 0z"/>
					</g>
				</g>
			</g>
		</g>
	</g>
</svg>